# xmcd
#
# Track frame offsets:
#	150
#	10054
#	24740
#	40183
#	56258
#	71849
#	86470
#	99601
#	115586
#	131330
#	149216
#	161019
#	170963
#	184374
#	197907
#	209876
#	219217
#	233971
#	243678
#	256906
#	272971
#	283393
#	296230
#	309986
#
# Disc length: 4328 seconds
#
# Revision: 4
# Processed by: cddbd v1.5.2PL0 Copyright (c) Steve Scherf et al.
# Submitted via: audiograbber 1.83.01
#
DISCID=8210e618
DTITLE=Ray Charles - Singles Collection - 1949-1962 - Plus Modern Sounds In Cou
DTITLE=ntry and Western Music - Volume 1 and 2  [CD4)
DYEAR=2014
DGENRE=Oldies
TTITLE0=Bye Bye Love
TTITLE1=You Don't Know Me
TTITLE2=Half As Much
TTITLE3=I Love You So Much It Hurts
TTITLE4=Just A Little Lovin'
TTITLE5=Born To Lose
TTITLE6=Worried Mind
TTITLE7=It Makes No Difference
TTITLE8=You Win Again
TTITLE9=Careless Love
TTITLE10=I Can't Stop Loving You
TTITLE11=Hey, Good Lookin'
TTITLE12=You Are My Sunshine
TTITLE13=No Letter Today
TTITLE14=Someday (You'll Want Me To Want You)
TTITLE15=Don't Tell Me Your Troubles
TTITLE16=Midnight
TTITLE17=Oh, Lonesome Me
TTITLE18=Take These Chains (From My Heart)
TTITLE19=Your Cheating Heart
TTITLE20=I'll Never Stand In Your Way
TTITLE21=Making Believe
TTITLE22=Teardrops In My Heart
TTITLE23=Hang Your Head In Shame
EXTD=
EXTT0=
EXTT1=
EXTT2=
EXTT3=
EXTT4=
EXTT5=
EXTT6=
EXTT7=
EXTT8=
EXTT9=
EXTT10=
EXTT11=
EXTT12=
EXTT13=
EXTT14=
EXTT15=
EXTT16=
EXTT17=
EXTT18=
EXTT19=
EXTT20=
EXTT21=
EXTT22=
EXTT23=
PLAYORDER=
